%TF.GenerationSoftware,KiCad,Pcbnew,9.0.0*%
%TF.CreationDate,2025-07-31T17:37:30+06:00*%
%TF.ProjectId,GridAppPCB,47726964-4170-4705-9043-422e6b696361,rev?*%
%TF.SameCoordinates,Original*%
%TF.FileFunction,Soldermask,Bot*%
%TF.FilePolarity,Negative*%
%FSLAX46Y46*%
G04 Gerber Fmt 4.6, Leading zero omitted, Abs format (unit mm)*
G04 Created by KiCad (PCBNEW 9.0.0) date 2025-07-31 17:37:30*
%MOMM*%
%LPD*%
G01*
G04 APERTURE LIST*
G04 Aperture macros list*
%AMRoundRect*
0 Rectangle with rounded corners*
0 $1 Rounding radius*
0 $2 $3 $4 $5 $6 $7 $8 $9 X,Y pos of 4 corners*
0 Add a 4 corners polygon primitive as box body*
4,1,4,$2,$3,$4,$5,$6,$7,$8,$9,$2,$3,0*
0 Add four circle primitives for the rounded corners*
1,1,$1+$1,$2,$3*
1,1,$1+$1,$4,$5*
1,1,$1+$1,$6,$7*
1,1,$1+$1,$8,$9*
0 Add four rect primitives between the rounded corners*
20,1,$1+$1,$2,$3,$4,$5,0*
20,1,$1+$1,$4,$5,$6,$7,0*
20,1,$1+$1,$6,$7,$8,$9,0*
20,1,$1+$1,$8,$9,$2,$3,0*%
G04 Aperture macros list end*
%ADD10R,2.540000X2.540000*%
%ADD11C,2.540000*%
%ADD12R,1.800000X1.800000*%
%ADD13C,1.800000*%
%ADD14RoundRect,0.250001X-0.949999X-0.949999X0.949999X-0.949999X0.949999X0.949999X-0.949999X0.949999X0*%
%ADD15C,2.400000*%
%ADD16R,2.200000X2.200000*%
%ADD17O,2.200000X2.200000*%
%ADD18R,1.980000X1.980000*%
%ADD19C,1.980000*%
%ADD20C,1.935000*%
%ADD21C,1.600000*%
%ADD22O,1.600000X1.600000*%
%ADD23R,1.298000X1.298000*%
%ADD24C,1.298000*%
%ADD25O,5.000000X3.000000*%
%ADD26C,3.200000*%
%ADD27R,1.752600X1.752600*%
%ADD28C,1.752600*%
%ADD29R,3.000000X3.000000*%
%ADD30C,3.000000*%
%ADD31R,1.700000X1.700000*%
%ADD32O,1.700000X1.700000*%
G04 APERTURE END LIST*
D10*
%TO.C,U2*%
X194960000Y-76620000D03*
D11*
X194960000Y-58840000D03*
X154320000Y-58840000D03*
X154320000Y-76620000D03*
%TD*%
D12*
%TO.C,LED1*%
X199861359Y-124633116D03*
D13*
X199861359Y-122093116D03*
%TD*%
D14*
%TO.C,J4*%
X124415000Y-134502500D03*
D15*
X129495000Y-134502500D03*
X134575000Y-134502500D03*
%TD*%
D14*
%TO.C,J7*%
X56990000Y-134502500D03*
D15*
X62070000Y-134502500D03*
X67150000Y-134502500D03*
%TD*%
D16*
%TO.C,D4*%
X100940000Y-93971757D03*
D17*
X111100000Y-93971757D03*
%TD*%
D18*
%TO.C,K7*%
X66133490Y-103268762D03*
D19*
X54133490Y-103268762D03*
D20*
X60133490Y-101268762D03*
D19*
X66133490Y-115468762D03*
X54133490Y-115468762D03*
%TD*%
D21*
%TO.C,R2*%
X183673334Y-110881757D03*
D22*
X183673334Y-103261757D03*
%TD*%
D21*
%TO.C,R3*%
X161125000Y-103261757D03*
D22*
X161125000Y-110881757D03*
%TD*%
D12*
%TO.C,LED6*%
X87536359Y-124633116D03*
D13*
X87536359Y-122093116D03*
%TD*%
D14*
%TO.C,J6*%
X79465000Y-134502500D03*
D15*
X84545000Y-134502500D03*
X89625000Y-134502500D03*
%TD*%
D16*
%TO.C,D3*%
X123415000Y-93971757D03*
D17*
X133575000Y-93971757D03*
%TD*%
D16*
%TO.C,D5*%
X78465000Y-93971757D03*
D17*
X88625000Y-93971757D03*
%TD*%
D12*
%TO.C,LED5*%
X110001359Y-124633116D03*
D13*
X110001359Y-122093116D03*
%TD*%
D23*
%TO.C,Q2*%
X181998750Y-94428007D03*
D24*
X184538750Y-94428007D03*
X187078750Y-94428007D03*
%TD*%
D23*
%TO.C,Q3*%
X159523750Y-94428007D03*
D24*
X162063750Y-94428007D03*
X164603750Y-94428007D03*
%TD*%
D25*
%TO.C,S9*%
X206032500Y-83710000D03*
X206032500Y-79010000D03*
X206032500Y-74310000D03*
%TD*%
D21*
%TO.C,R11*%
X140843334Y-88650000D03*
D22*
X133223334Y-88650000D03*
%TD*%
D21*
%TO.C,R9*%
X95858889Y-88650000D03*
D22*
X88238889Y-88650000D03*
%TD*%
D14*
%TO.C,J1*%
X191840000Y-134470000D03*
D15*
X196920000Y-134470000D03*
X202000000Y-134470000D03*
%TD*%
D26*
%TO.C,U1*%
X101020000Y-56550000D03*
X57840000Y-56550000D03*
X101020000Y-76870000D03*
X57840000Y-76870000D03*
D27*
X97210000Y-55280000D03*
D28*
X94670000Y-55280000D03*
X92130000Y-55280000D03*
X89590000Y-55280000D03*
X87050000Y-55280000D03*
X84510000Y-55280000D03*
X81970000Y-55280000D03*
X79430000Y-55280000D03*
X76890000Y-55280000D03*
X74350000Y-55280000D03*
X71810000Y-55280000D03*
X69270000Y-55280000D03*
X66730000Y-55280000D03*
X64190000Y-55280000D03*
X61650000Y-55280000D03*
X61650000Y-78140000D03*
X64190000Y-78140000D03*
X66730000Y-78140000D03*
X69270000Y-78140000D03*
X71810000Y-78140000D03*
X74350000Y-78140000D03*
X76890000Y-78140000D03*
X79430000Y-78140000D03*
X81970000Y-78140000D03*
X84510000Y-78140000D03*
X87050000Y-78140000D03*
X89590000Y-78140000D03*
X92130000Y-78140000D03*
X94670000Y-78140000D03*
X97210000Y-78140000D03*
%TD*%
D18*
%TO.C,K3*%
X156033490Y-103268762D03*
D19*
X144033490Y-103268762D03*
D20*
X150033490Y-101268762D03*
D19*
X156033490Y-115468762D03*
X144033490Y-115468762D03*
%TD*%
D21*
%TO.C,R12*%
X163335556Y-88650000D03*
D22*
X155715556Y-88650000D03*
%TD*%
D21*
%TO.C,R13*%
X185827778Y-88650000D03*
D22*
X178207778Y-88650000D03*
%TD*%
D23*
%TO.C,Q4*%
X137048750Y-94428007D03*
D24*
X139588750Y-94428007D03*
X142128750Y-94428007D03*
%TD*%
D14*
%TO.C,J5*%
X101940000Y-134502500D03*
D15*
X107020000Y-134502500D03*
X112100000Y-134502500D03*
%TD*%
D12*
%TO.C,LED4*%
X132466359Y-124633116D03*
D13*
X132466359Y-122093116D03*
%TD*%
D18*
%TO.C,K1*%
X200983490Y-103268762D03*
D19*
X188983490Y-103268762D03*
D20*
X194983490Y-101268762D03*
D19*
X200983490Y-115468762D03*
X188983490Y-115468762D03*
%TD*%
D12*
%TO.C,LED7*%
X65071359Y-124633116D03*
D13*
X65071359Y-122093116D03*
%TD*%
D16*
%TO.C,D7*%
X190840000Y-93971757D03*
D17*
X201000000Y-93971757D03*
%TD*%
D21*
%TO.C,R5*%
X116028334Y-103261757D03*
D22*
X116028334Y-110881757D03*
%TD*%
D14*
%TO.C,J2*%
X169365000Y-134502500D03*
D15*
X174445000Y-134502500D03*
X179525000Y-134502500D03*
%TD*%
D21*
%TO.C,R8*%
X74860000Y-88740000D03*
D22*
X67240000Y-88740000D03*
%TD*%
D21*
%TO.C,R6*%
X93480000Y-103261757D03*
D22*
X93480000Y-110881757D03*
%TD*%
D21*
%TO.C,R10*%
X118351111Y-88650000D03*
D22*
X110731111Y-88650000D03*
%TD*%
D14*
%TO.C,J3*%
X146890000Y-134502500D03*
D15*
X151970000Y-134502500D03*
X157050000Y-134502500D03*
%TD*%
D21*
%TO.C,R14*%
X208320000Y-88650000D03*
D22*
X200700000Y-88650000D03*
%TD*%
D16*
%TO.C,D1*%
X168365000Y-93971757D03*
D17*
X178525000Y-93971757D03*
%TD*%
D23*
%TO.C,Q1*%
X204456250Y-94428007D03*
D24*
X206996250Y-94428007D03*
X209536250Y-94428007D03*
%TD*%
D21*
%TO.C,R16*%
X64470000Y-88730000D03*
D22*
X56850000Y-88730000D03*
%TD*%
D29*
%TO.C,J8*%
X205995000Y-66535000D03*
D30*
X205995000Y-61535000D03*
%TD*%
D18*
%TO.C,K2*%
X178508490Y-103268762D03*
D19*
X166508490Y-103268762D03*
D20*
X172508490Y-101268762D03*
D19*
X178508490Y-115468762D03*
X166508490Y-115468762D03*
%TD*%
D31*
%TO.C,J10*%
X52480000Y-90660000D03*
D32*
X52480000Y-88120000D03*
X52480000Y-85580000D03*
X52480000Y-83040000D03*
%TD*%
D18*
%TO.C,K6*%
X88608490Y-103268762D03*
D19*
X76608490Y-103268762D03*
D20*
X82608490Y-101268762D03*
D19*
X88608490Y-115468762D03*
X76608490Y-115468762D03*
%TD*%
D21*
%TO.C,R4*%
X138576667Y-103261757D03*
D22*
X138576667Y-110881757D03*
%TD*%
D23*
%TO.C,Q5*%
X114573750Y-94428007D03*
D24*
X117113750Y-94428007D03*
X119653750Y-94428007D03*
%TD*%
D12*
%TO.C,LED2*%
X177396359Y-124633116D03*
D13*
X177396359Y-122093116D03*
%TD*%
D16*
%TO.C,D2*%
X145890000Y-93971757D03*
D17*
X156050000Y-93971757D03*
%TD*%
D21*
%TO.C,R1*%
X206221667Y-103261757D03*
D22*
X206221667Y-110881757D03*
%TD*%
D21*
%TO.C,R15*%
X64470000Y-85230000D03*
D22*
X56850000Y-85230000D03*
%TD*%
D16*
%TO.C,D6*%
X55990000Y-93971757D03*
D17*
X66150000Y-93971757D03*
%TD*%
D21*
%TO.C,R7*%
X70931667Y-103261757D03*
D22*
X70931667Y-110881757D03*
%TD*%
D23*
%TO.C,Q7*%
X69606250Y-94428007D03*
D24*
X72146250Y-94428007D03*
X74686250Y-94428007D03*
%TD*%
D23*
%TO.C,Q6*%
X92098750Y-94428007D03*
D24*
X94638750Y-94428007D03*
X97178750Y-94428007D03*
%TD*%
D18*
%TO.C,K4*%
X133558490Y-103268762D03*
D19*
X121558490Y-103268762D03*
D20*
X127558490Y-101268762D03*
D19*
X133558490Y-115468762D03*
X121558490Y-115468762D03*
%TD*%
D12*
%TO.C,LED3*%
X154931359Y-124633116D03*
D13*
X154931359Y-122093116D03*
%TD*%
D18*
%TO.C,K5*%
X111083490Y-103268762D03*
D19*
X99083490Y-103268762D03*
D20*
X105083490Y-101268762D03*
D19*
X111083490Y-115468762D03*
X99083490Y-115468762D03*
%TD*%
M02*
