M48
; DRILL file {KiCad 9.0.0} date 2025-07-31T17:37:23+0600
; FORMAT={-:-/ absolute / metric / decimal}
; #@! TF.CreationDate,2025-07-31T17:37:23+06:00
; #@! TF.GenerationSoftware,Kicad,Pcbnew,9.0.0
; #@! TF.FileFunction,Plated,1,2,PTH
FMAT,2
METRIC
; #@! TA.AperFunction,Plated,PTH,ComponentDrill
T1C0.790
; #@! TA.AperFunction,Plated,PTH,ComponentDrill
T2C0.800
; #@! TA.AperFunction,Plated,PTH,ComponentDrill
T3C0.889
; #@! TA.AperFunction,Plated,PTH,ComponentDrill
T4C0.900
; #@! TA.AperFunction,Plated,PTH,ComponentDrill
T5C0.910
; #@! TA.AperFunction,Plated,PTH,ComponentDrill
T6C1.000
; #@! TA.AperFunction,Plated,PTH,ComponentDrill
T7C1.100
; #@! TA.AperFunction,Plated,PTH,ComponentDrill
T8C1.290
; #@! TA.AperFunction,Plated,PTH,ComponentDrill
T9C1.300
; #@! TA.AperFunction,Plated,PTH,ComponentDrill
T10C1.320
; #@! TA.AperFunction,Plated,PTH,ComponentDrill
T11C1.600
; #@! TA.AperFunction,Plated,PTH,ViaDrill
T12C3.500
%
G90
G05
T1
X69.606Y-94.428
X72.146Y-94.428
X74.686Y-94.428
X92.099Y-94.428
X94.639Y-94.428
X97.179Y-94.428
X114.574Y-94.428
X117.114Y-94.428
X119.654Y-94.428
X137.049Y-94.428
X139.589Y-94.428
X142.129Y-94.428
X159.524Y-94.428
X162.064Y-94.428
X164.604Y-94.428
X181.999Y-94.428
X184.539Y-94.428
X187.079Y-94.428
X204.456Y-94.428
X206.996Y-94.428
X209.536Y-94.428
T2
X56.85Y-85.23
X56.85Y-88.73
X64.47Y-85.23
X64.47Y-88.73
X67.24Y-88.74
X70.932Y-103.262
X70.932Y-110.882
X74.86Y-88.74
X88.239Y-88.65
X93.48Y-103.262
X93.48Y-110.882
X95.859Y-88.65
X110.731Y-88.65
X116.028Y-103.262
X116.028Y-110.882
X118.351Y-88.65
X133.223Y-88.65
X138.577Y-103.262
X138.577Y-110.882
X140.843Y-88.65
X155.716Y-88.65
X161.125Y-103.262
X161.125Y-110.882
X163.336Y-88.65
X178.208Y-88.65
X183.673Y-103.262
X183.673Y-110.882
X185.828Y-88.65
X200.7Y-88.65
X206.222Y-103.262
X206.222Y-110.882
X208.32Y-88.65
T3
X61.65Y-55.28
X61.65Y-78.14
X64.19Y-55.28
X64.19Y-78.14
X66.73Y-55.28
X66.73Y-78.14
X69.27Y-55.28
X69.27Y-78.14
X71.81Y-55.28
X71.81Y-78.14
X74.35Y-55.28
X74.35Y-78.14
X76.89Y-55.28
X76.89Y-78.14
X79.43Y-55.28
X79.43Y-78.14
X81.97Y-55.28
X81.97Y-78.14
X84.51Y-55.28
X84.51Y-78.14
X87.05Y-55.28
X87.05Y-78.14
X89.59Y-55.28
X89.59Y-78.14
X92.13Y-55.28
X92.13Y-78.14
X94.67Y-55.28
X94.67Y-78.14
X97.21Y-55.28
X97.21Y-78.14
T4
X65.071Y-122.093
X65.071Y-124.633
X87.536Y-122.093
X87.536Y-124.633
X110.001Y-122.093
X110.001Y-124.633
X132.466Y-122.093
X132.466Y-124.633
X154.931Y-122.093
X154.931Y-124.633
X177.396Y-122.093
X177.396Y-124.633
X199.861Y-122.093
X199.861Y-124.633
T6
X52.48Y-83.04
X52.48Y-85.58
X52.48Y-88.12
X52.48Y-90.66
X154.32Y-58.84
X154.32Y-76.62
X194.96Y-58.84
X194.96Y-76.62
T7
X55.99Y-93.972
X66.15Y-93.972
X78.465Y-93.972
X88.625Y-93.972
X100.94Y-93.972
X111.1Y-93.972
X123.415Y-93.972
X133.575Y-93.972
X145.89Y-93.972
X156.05Y-93.972
X168.365Y-93.972
X178.525Y-93.972
X190.84Y-93.972
X201.0Y-93.972
T8
X60.133Y-101.269
X82.608Y-101.269
X105.083Y-101.269
X127.558Y-101.269
X150.033Y-101.269
X172.508Y-101.269
X194.983Y-101.269
T9
X205.995Y-61.535
X205.995Y-66.535
T10
X54.133Y-103.269
X54.133Y-115.469
X66.133Y-103.269
X66.133Y-115.469
X76.608Y-103.269
X76.608Y-115.469
X88.608Y-103.269
X88.608Y-115.469
X99.083Y-103.269
X99.083Y-115.469
X111.083Y-103.269
X111.083Y-115.469
X121.558Y-103.269
X121.558Y-115.469
X133.558Y-103.269
X133.558Y-115.469
X144.033Y-103.269
X144.033Y-115.469
X156.033Y-103.269
X156.033Y-115.469
X166.508Y-103.269
X166.508Y-115.469
X178.508Y-103.269
X178.508Y-115.469
X188.983Y-103.269
X188.983Y-115.469
X200.983Y-103.269
X200.983Y-115.469
T11
X56.99Y-134.502
X62.07Y-134.502
X67.15Y-134.502
X79.465Y-134.502
X84.545Y-134.502
X89.625Y-134.502
X101.94Y-134.502
X107.02Y-134.502
X112.1Y-134.502
X124.415Y-134.502
X129.495Y-134.502
X134.575Y-134.502
X146.89Y-134.502
X151.97Y-134.502
X157.05Y-134.502
X169.365Y-134.502
X174.445Y-134.502
X179.525Y-134.502
X191.84Y-134.47
X196.92Y-134.47
X202.0Y-134.47
T12
X50.33Y-52.83
X50.34Y-139.62
X210.0Y-139.02
X210.87Y-52.45
T5
G00X205.017Y-74.31
M15
G01X207.047Y-74.31
M16
G05
G00X205.017Y-79.01
M15
G01X207.047Y-79.01
M16
G05
G00X205.017Y-83.71
M15
G01X207.047Y-83.71
M16
G05
M30
